<mxfile host="app.diagrams.net" agent="Mozilla/5.0 (Macintosh; Intel Mac OS X 10_15_7) AppleWebKit/605.1.15 (KHTML, like Gecko) Version/17.2.1 Safari/605.1.15" version="26.1.0">
  <diagram name="Page-1" id="R_1BPAozDAuSYq13uV4G">
    <mxGraphModel dx="1208" dy="792" grid="1" gridSize="10" guides="1" tooltips="1" connect="1" arrows="1" fold="1" page="1" pageScale="1" pageWidth="827" pageHeight="1169" math="0" shadow="0">
      <root>
        <mxCell id="0" />
        <mxCell id="1" parent="0" />
        <mxCell id="sRKy9_dC_oPjdow7FwWJ-1" value="&lt;b&gt;Class&lt;/b&gt;&lt;div&gt;&lt;br&gt;&lt;/div&gt;&lt;div&gt;PK&lt;/div&gt;&lt;div&gt;&lt;span style=&quot;font-size: 12px;&quot;&gt;Name&lt;/span&gt;&lt;/div&gt;&lt;div&gt;&lt;span style=&quot;font-size: 12px;&quot;&gt;Capacity&lt;/span&gt;&lt;/div&gt;&lt;div&gt;&lt;span style=&quot;font-size: 12px;&quot;&gt;Teacher(FK)&lt;/span&gt;&lt;/div&gt;" style="whiteSpace=wrap;html=1;aspect=fixed;sketch=1;curveFitting=1;jiggle=2;" vertex="1" parent="1">
          <mxGeometry x="100" y="130" width="110" height="110" as="geometry" />
        </mxCell>
        <mxCell id="sRKy9_dC_oPjdow7FwWJ-2" value="&lt;b&gt;Teachers&lt;/b&gt;&lt;div&gt;&lt;br&gt;&lt;/div&gt;&lt;div&gt;PK&lt;/div&gt;&lt;div&gt;Name&lt;/div&gt;&lt;div&gt;Address&lt;/div&gt;&lt;div&gt;Email&lt;/div&gt;&lt;div&gt;Telephone&lt;/div&gt;&lt;div&gt;Salary&lt;/div&gt;" style="whiteSpace=wrap;html=1;aspect=fixed;sketch=1;curveFitting=1;jiggle=2;" vertex="1" parent="1">
          <mxGeometry x="300" y="130" width="110" height="110" as="geometry" />
        </mxCell>
        <mxCell id="sRKy9_dC_oPjdow7FwWJ-3" value="" style="endArrow=classic;startArrow=classic;html=1;rounded=0;entryX=0;entryY=0.5;entryDx=0;entryDy=0;exitX=1;exitY=0.5;exitDx=0;exitDy=0;sketch=1;curveFitting=1;jiggle=2;" edge="1" parent="1" source="sRKy9_dC_oPjdow7FwWJ-1" target="sRKy9_dC_oPjdow7FwWJ-2">
          <mxGeometry width="50" height="50" relative="1" as="geometry">
            <mxPoint x="230" y="190" as="sourcePoint" />
            <mxPoint x="250" y="130" as="targetPoint" />
          </mxGeometry>
        </mxCell>
        <mxCell id="sRKy9_dC_oPjdow7FwWJ-4" value="&lt;b&gt;Pupils&lt;/b&gt;&lt;div&gt;&lt;br&gt;&lt;/div&gt;&lt;div&gt;PK&lt;/div&gt;&lt;div&gt;Name&lt;/div&gt;&lt;div&gt;Address&lt;/div&gt;&lt;div&gt;Medical info&lt;/div&gt;&lt;div&gt;Parents(FK)&lt;/div&gt;&lt;div&gt;Class(FK)&lt;/div&gt;" style="whiteSpace=wrap;html=1;aspect=fixed;sketch=1;curveFitting=1;jiggle=2;" vertex="1" parent="1">
          <mxGeometry x="100" y="320" width="110" height="110" as="geometry" />
        </mxCell>
        <mxCell id="sRKy9_dC_oPjdow7FwWJ-5" value="" style="endArrow=classic;startArrow=classic;html=1;rounded=0;entryX=0.5;entryY=1;entryDx=0;entryDy=0;exitX=0.5;exitY=0;exitDx=0;exitDy=0;sketch=1;curveFitting=1;jiggle=2;" edge="1" parent="1" source="sRKy9_dC_oPjdow7FwWJ-4" target="sRKy9_dC_oPjdow7FwWJ-1">
          <mxGeometry width="50" height="50" relative="1" as="geometry">
            <mxPoint x="230" y="355" as="sourcePoint" />
            <mxPoint x="280" y="305" as="targetPoint" />
          </mxGeometry>
        </mxCell>
        <mxCell id="sRKy9_dC_oPjdow7FwWJ-6" value="" style="endArrow=classic;html=1;rounded=0;entryX=0.75;entryY=0;entryDx=0;entryDy=0;sketch=1;curveFitting=1;jiggle=2;" edge="1" parent="1" target="sRKy9_dC_oPjdow7FwWJ-4">
          <mxGeometry width="50" height="50" relative="1" as="geometry">
            <mxPoint x="150" y="280" as="sourcePoint" />
            <mxPoint x="430" y="370" as="targetPoint" />
          </mxGeometry>
        </mxCell>
        <mxCell id="sRKy9_dC_oPjdow7FwWJ-7" value="" style="endArrow=classic;html=1;rounded=0;entryX=0.25;entryY=0;entryDx=0;entryDy=0;sketch=1;curveFitting=1;jiggle=2;" edge="1" parent="1" target="sRKy9_dC_oPjdow7FwWJ-4">
          <mxGeometry width="50" height="50" relative="1" as="geometry">
            <mxPoint x="150" y="280" as="sourcePoint" />
            <mxPoint x="430" y="370" as="targetPoint" />
          </mxGeometry>
        </mxCell>
        <mxCell id="sRKy9_dC_oPjdow7FwWJ-8" value="&lt;b&gt;Parents&lt;/b&gt;&lt;div&gt;&lt;br&gt;&lt;div&gt;PK&lt;/div&gt;&lt;div&gt;Name&lt;/div&gt;&lt;div&gt;Address&lt;/div&gt;&lt;div&gt;Email&lt;/div&gt;&lt;div&gt;Telephone&lt;/div&gt;&lt;/div&gt;" style="whiteSpace=wrap;html=1;aspect=fixed;sketch=1;curveFitting=1;jiggle=2;" vertex="1" parent="1">
          <mxGeometry x="500" y="320" width="110" height="110" as="geometry" />
        </mxCell>
        <mxCell id="sRKy9_dC_oPjdow7FwWJ-9" value="" style="edgeStyle=orthogonalEdgeStyle;rounded=0;orthogonalLoop=1;jettySize=auto;html=1;" edge="1" parent="1" source="sRKy9_dC_oPjdow7FwWJ-10" target="sRKy9_dC_oPjdow7FwWJ-4">
          <mxGeometry relative="1" as="geometry" />
        </mxCell>
        <mxCell id="sRKy9_dC_oPjdow7FwWJ-10" value="&lt;b&gt;Parent-Pupils&lt;/b&gt;&lt;div&gt;&lt;br&gt;&lt;/div&gt;&lt;div&gt;Pupil(FK)&lt;/div&gt;&lt;div&gt;Parent(FK)&lt;/div&gt;&lt;div&gt;Teacher(FK)&lt;/div&gt;" style="whiteSpace=wrap;html=1;aspect=fixed;sketch=1;curveFitting=1;jiggle=2;" vertex="1" parent="1">
          <mxGeometry x="300" y="320" width="110" height="110" as="geometry" />
        </mxCell>
        <mxCell id="sRKy9_dC_oPjdow7FwWJ-11" value="" style="endArrow=classic;startArrow=classic;html=1;rounded=0;exitX=1;exitY=0.5;exitDx=0;exitDy=0;entryX=0;entryY=0.5;entryDx=0;entryDy=0;sketch=1;curveFitting=1;jiggle=2;" edge="1" parent="1" source="sRKy9_dC_oPjdow7FwWJ-4" target="sRKy9_dC_oPjdow7FwWJ-10">
          <mxGeometry width="50" height="50" relative="1" as="geometry">
            <mxPoint x="380" y="420" as="sourcePoint" />
            <mxPoint x="270" y="390" as="targetPoint" />
          </mxGeometry>
        </mxCell>
        <mxCell id="sRKy9_dC_oPjdow7FwWJ-12" value="" style="endArrow=classic;html=1;rounded=0;entryX=1;entryY=0.25;entryDx=0;entryDy=0;sketch=1;curveFitting=1;jiggle=2;" edge="1" parent="1" target="sRKy9_dC_oPjdow7FwWJ-4">
          <mxGeometry width="50" height="50" relative="1" as="geometry">
            <mxPoint x="240" y="370" as="sourcePoint" />
            <mxPoint x="310" y="320" as="targetPoint" />
          </mxGeometry>
        </mxCell>
        <mxCell id="sRKy9_dC_oPjdow7FwWJ-13" value="" style="endArrow=classic;html=1;rounded=0;entryX=1;entryY=0.75;entryDx=0;entryDy=0;flowAnimation=0;sketch=1;curveFitting=1;jiggle=2;" edge="1" parent="1" target="sRKy9_dC_oPjdow7FwWJ-4">
          <mxGeometry width="50" height="50" relative="1" as="geometry">
            <mxPoint x="240" y="370" as="sourcePoint" />
            <mxPoint x="290" y="380" as="targetPoint" />
          </mxGeometry>
        </mxCell>
        <mxCell id="sRKy9_dC_oPjdow7FwWJ-14" value="" style="endArrow=classic;startArrow=classic;html=1;rounded=0;entryX=0;entryY=0.5;entryDx=0;entryDy=0;exitX=1;exitY=0.5;exitDx=0;exitDy=0;sketch=1;curveFitting=1;jiggle=2;" edge="1" parent="1" source="sRKy9_dC_oPjdow7FwWJ-10" target="sRKy9_dC_oPjdow7FwWJ-8">
          <mxGeometry width="50" height="50" relative="1" as="geometry">
            <mxPoint x="380" y="420" as="sourcePoint" />
            <mxPoint x="430" y="370" as="targetPoint" />
          </mxGeometry>
        </mxCell>
        <mxCell id="sRKy9_dC_oPjdow7FwWJ-15" value="" style="endArrow=classic;html=1;rounded=0;entryX=1;entryY=0.25;entryDx=0;entryDy=0;sketch=1;curveFitting=1;jiggle=2;" edge="1" parent="1" target="sRKy9_dC_oPjdow7FwWJ-10">
          <mxGeometry width="50" height="50" relative="1" as="geometry">
            <mxPoint x="440" y="380" as="sourcePoint" />
            <mxPoint x="480" y="320" as="targetPoint" />
          </mxGeometry>
        </mxCell>
        <mxCell id="sRKy9_dC_oPjdow7FwWJ-16" value="" style="endArrow=classic;html=1;rounded=0;sketch=1;curveFitting=1;jiggle=2;" edge="1" parent="1">
          <mxGeometry width="50" height="50" relative="1" as="geometry">
            <mxPoint x="440" y="380" as="sourcePoint" />
            <mxPoint x="410" y="403" as="targetPoint" />
          </mxGeometry>
        </mxCell>
      </root>
    </mxGraphModel>
  </diagram>
</mxfile>
